<svg xmlns="http://www.w3.org/2000/svg" xmlns:xlink="http://www.w3.org/1999/xlink" width="500" zoomAndPan="magnify" viewBox="0 0 375 374.999991" height="500" preserveAspectRatio="xMidYMid meet" version="1.0"><defs><clipPath id="7b55ddd1e2"><path d="M 116.410156 213 L 191 213 L 191 342.976562 L 116.410156 342.976562 Z M 116.410156 213 " clip-rule="nonzero"/></clipPath><clipPath id="9159b13a82"><path d="M 138 108.226562 L 220 108.226562 L 220 156 L 138 156 Z M 138 108.226562 " clip-rule="nonzero"/></clipPath></defs><path fill="#f0cda5" d="M 169.871094 227.75 L 169.917969 199.992188 L 188.875 199.136719 C 190.320312 210.15625 191.761719 221.171875 193.203125 232.191406 L 169.871094 227.75 " fill-opacity="1" fill-rule="nonzero"/><path fill="#00bf63" d="M 179.054688 339.425781 L 183.453125 339.777344 C 198.671875 340.96875 208.6875 341.167969 213.496094 340.375 C 221.242188 339.140625 226.171875 337.199219 228.285156 334.558594 C 230.242188 332.960938 231.4375 330.332031 231.878906 326.671875 C 231.964844 326.277344 231.933594 325.011719 231.785156 322.882812 C 231.023438 317.625 230.667969 314.078125 230.71875 312.246094 C 230.621094 309.554688 231.070312 305.046875 232.0625 298.714844 C 238.757812 293.070312 242.734375 289.074219 243.992188 286.71875 C 246.34375 283.410156 247.613281 279.578125 247.804688 275.214844 C 248.054688 273.113281 247.632812 269.183594 246.542969 263.433594 C 245.875 260.113281 244.09375 253.246094 241.191406 242.839844 C 238.882812 235.234375 236.273438 229.894531 233.355469 226.820312 C 228.40625 220.050781 214.851562 215.144531 192.6875 212.089844 L 178.570312 221.128906 L 179.054688 339.425781 " fill-opacity="1" fill-rule="nonzero"/><g clip-path="url(#7b55ddd1e2)"><path fill="#00bf63" d="M 190.792969 338.941406 L 186.4375 339.644531 C 171.367188 342.074219 161.402344 343.089844 156.535156 342.695312 C 148.714844 342.089844 143.644531 340.558594 141.320312 338.101562 C 139.242188 336.671875 137.832031 334.152344 137.09375 330.535156 C 136.976562 330.148438 136.910156 328.886719 136.886719 326.753906 C 137.214844 321.449219 137.277344 317.886719 137.082031 316.0625 C 136.957031 313.371094 136.144531 308.914062 134.636719 302.691406 C 127.507812 297.613281 123.21875 293.949219 121.773438 291.707031 C 119.160156 288.601562 117.578125 284.882812 117.03125 280.550781 C 116.613281 278.476562 116.714844 274.523438 117.332031 268.699219 C 117.726562 265.332031 118.945312 258.347656 120.984375 247.738281 C 122.664062 239.96875 124.832031 234.433594 127.488281 231.132812 C 131.863281 223.984375 144.976562 217.984375 166.816406 213.132812 L 181.625 220.992188 L 190.792969 338.941406 " fill-opacity="1" fill-rule="nonzero"/></g><path fill="#ffffff" d="M 179.519531 220.023438 L 180.429688 219.007812 C 182.261719 216.929688 183.996094 215.09375 185.628906 213.503906 C 187.40625 211.855469 188.636719 210.925781 189.3125 210.71875 C 190.074219 210.328125 190.84375 210.308594 191.625 210.667969 C 192.355469 211.027344 193.132812 211.882812 193.957031 213.230469 L 181.042969 226.042969 L 180.929688 228.570312 L 180.414062 229.15625 L 180.222656 225.773438 L 179.8125 225.152344 L 179.003906 221.332031 L 179.523438 220.027344 " fill-opacity="1" fill-rule="nonzero"/><path fill="#ffffff" d="M 180.589844 219.976562 L 179.601562 219.042969 C 177.601562 217.117188 175.726562 215.429688 173.96875 213.980469 C 172.058594 212.488281 170.761719 211.664062 170.070312 211.503906 C 169.277344 211.175781 168.507812 211.222656 167.761719 211.640625 C 167.0625 212.0625 166.355469 212.976562 165.644531 214.386719 L 179.558594 226.105469 L 179.878906 228.613281 L 180.441406 229.15625 L 180.355469 225.769531 L 180.71875 225.109375 L 181.210938 221.234375 L 180.59375 219.976562 " fill-opacity="1" fill-rule="nonzero"/><path fill="#292929" d="M 197.144531 293.960938 L 197.554688 293.324219 C 199.3125 290.707031 200.890625 287.988281 202.296875 285.167969 C 203.507812 282.777344 205.457031 278.296875 208.140625 271.730469 L 201.222656 269.167969 L 197.613281 270.464844 L 195.242188 274.613281 L 193.152344 279.117188 C 192.011719 281.699219 191.023438 284.066406 190.191406 286.226562 L 190.300781 288.863281 L 197.136719 293.960938 " fill-opacity="1" fill-rule="nonzero"/><path fill="#292929" d="M 169.058594 295.109375 L 168.589844 294.507812 C 166.628906 292.042969 164.828125 289.460938 163.195312 286.765625 C 161.796875 284.480469 159.488281 280.175781 156.277344 273.855469 L 162.96875 270.730469 L 166.683594 271.726562 L 169.378906 275.671875 L 171.828125 280 C 173.175781 282.476562 174.351562 284.757812 175.355469 286.84375 L 175.460938 289.480469 L 169.066406 295.121094 " fill-opacity="1" fill-rule="nonzero"/><path fill="#f0cda5" d="M 196.003906 271.394531 L 195.507812 270.871094 C 193.199219 268.421875 191.582031 266.097656 190.65625 263.894531 C 190.496094 263.632812 190.035156 262.5 189.273438 260.5 L 186.652344 252.792969 C 186.378906 251.988281 186.101562 251.242188 185.828125 250.550781 C 185.191406 249.023438 184.761719 248.128906 184.539062 247.871094 C 183.640625 246.285156 182.347656 245.867188 180.660156 246.613281 L 181.410156 264.574219 C 181.285156 269.226562 181.234375 272.441406 181.261719 274.214844 C 181.320312 277.144531 181.386719 278.824219 181.453125 279.257812 C 181.605469 281.320312 181.902344 283 182.34375 284.304688 C 182.601562 285.113281 183.015625 285.824219 183.589844 286.441406 C 184.472656 287.582031 186.453125 287.957031 189.53125 287.558594 L 195.996094 271.394531 " fill-opacity="1" fill-rule="nonzero"/><path fill="#f0cda5" d="M 168.355469 272.527344 L 168.804688 271.964844 C 170.902344 269.332031 172.324219 266.882812 173.070312 264.613281 C 173.207031 264.339844 173.574219 263.171875 174.171875 261.109375 L 176.15625 253.234375 C 176.367188 252.410156 176.582031 251.640625 176.792969 250.929688 C 177.300781 249.355469 177.65625 248.433594 177.859375 248.160156 C 178.625 246.507812 179.878906 245.988281 181.625 246.589844 L 182.339844 264.554688 C 182.847656 269.179688 183.160156 272.375 183.277344 274.148438 C 183.457031 277.070312 183.53125 278.75 183.496094 279.1875 C 183.511719 281.257812 183.355469 282.960938 183.019531 284.292969 C 182.824219 285.113281 182.464844 285.851562 181.941406 286.511719 C 181.15625 287.71875 179.210938 288.25 176.113281 288.105469 L 168.351562 272.527344 " fill-opacity="1" fill-rule="nonzero"/><path fill="#292929" d="M 238.746094 293.59375 L 238.6875 293.660156 C 234.710938 298.082031 230.519531 302.734375 222.644531 302.734375 C 222.40625 302.734375 222.152344 302.734375 221.90625 302.707031 C 213.695312 302.417969 201.605469 297.175781 195.492188 293.835938 C 189.234375 290.414062 188.6875 288.636719 189.964844 284.542969 L 189.964844 284.519531 L 189.964844 284.542969 C 191.121094 280.828125 193.675781 274.941406 195.773438 271.808594 C 197.085938 269.847656 198.347656 268.78125 200.308594 268.78125 C 201.453125 268.78125 202.785156 269.144531 204.40625 269.746094 C 208.664062 271.316406 215.542969 274.742188 222.375 278.136719 L 221.402344 278.804688 C 220.832031 272.722656 220.257812 266.527344 219.78125 261.351562 C 219.296875 256.132812 218.90625 251.832031 218.515625 247.515625 C 218.503906 247.332031 218.558594 247.171875 218.679688 247.03125 C 218.800781 246.890625 218.953125 246.8125 219.136719 246.796875 C 219.320312 246.777344 219.484375 246.828125 219.625 246.945312 C 219.769531 247.058594 219.851562 247.210938 219.875 247.394531 C 220.261719 251.652344 220.660156 256.054688 221.136719 261.226562 C 221.605469 266.335938 222.195312 272.660156 222.761719 278.675781 C 222.785156 278.941406 222.683594 279.152344 222.464844 279.300781 C 222.246094 279.453125 222.015625 279.46875 221.777344 279.347656 C 214.914062 275.9375 208.109375 272.558594 203.945312 271.015625 C 202.335938 270.425781 201.207031 270.136719 200.320312 270.136719 C 199.027344 270.136719 198.121094 270.746094 196.90625 272.558594 C 194.902344 275.554688 192.394531 281.320312 191.265625 284.929688 L 191.265625 284.957031 L 191.265625 284.933594 C 190.257812 288.164062 190.203125 289.371094 196.148438 292.621094 C 202.234375 295.964844 214.078125 301.074219 221.945312 301.355469 C 222.183594 301.355469 222.40625 301.375 222.632812 301.375 C 229.851562 301.375 233.667969 297.199219 237.664062 292.75 L 237.726562 292.683594 C 237.855469 292.554688 238.011719 292.488281 238.191406 292.480469 C 238.375 292.476562 238.535156 292.535156 238.667969 292.65625 C 238.804688 292.78125 238.878906 292.933594 238.890625 293.113281 C 238.90625 293.296875 238.855469 293.457031 238.738281 293.597656 Z M 238.746094 293.59375 " fill-opacity="1" fill-rule="nonzero"/><path fill="#292929" d="M 127.5625 298.140625 L 127.628906 298.199219 C 131.960938 302.289062 136.507812 306.582031 144.359375 305.941406 C 144.597656 305.917969 144.847656 305.894531 145.09375 305.867188 C 153.257812 304.902344 164.871094 298.6875 170.691406 294.859375 C 176.652344 290.941406 177.050781 289.125 175.4375 285.148438 L 175.4375 285.175781 C 173.980469 281.578125 170.957031 275.910156 168.609375 272.957031 C 167.136719 271.101562 165.792969 270.152344 163.832031 270.3125 C 162.691406 270.402344 161.398438 270.875 159.824219 271.605469 C 155.710938 273.519531 149.132812 277.492188 142.601562 281.433594 L 143.632812 282.027344 C 143.703125 275.921875 143.773438 269.695312 143.828125 264.5 C 143.878906 259.257812 143.917969 254.9375 143.957031 250.605469 C 143.96875 250.410156 143.90625 250.242188 143.773438 250.097656 C 143.640625 249.953125 143.476562 249.882812 143.28125 249.878906 C 143.085938 249.878906 142.917969 249.949219 142.785156 250.089844 C 142.648438 250.230469 142.585938 250.398438 142.59375 250.59375 C 142.554688 254.871094 142.515625 259.296875 142.464844 264.484375 C 142.410156 269.613281 142.339844 275.96875 142.269531 282.011719 C 142.265625 282.277344 142.382812 282.476562 142.613281 282.609375 C 142.84375 282.742188 143.074219 282.742188 143.304688 282.609375 C 149.867188 278.648438 156.371094 274.722656 160.398438 272.851562 C 161.949219 272.128906 163.054688 271.75 163.941406 271.679688 C 165.226562 271.574219 166.179688 272.101562 167.539062 273.8125 C 169.78125 276.632812 172.746094 282.175781 174.167969 285.695312 L 174.167969 285.71875 L 174.167969 285.691406 C 175.441406 288.832031 175.59375 290.03125 169.933594 293.753906 C 164.132812 297.566406 152.75 303.621094 144.921875 304.546875 C 144.6875 304.574219 144.464844 304.59375 144.238281 304.613281 C 137.050781 305.203125 132.894531 301.351562 128.550781 297.242188 L 128.488281 297.183594 C 128.351562 297.054688 128.1875 296.992188 128 296.996094 C 127.8125 297.003906 127.652344 297.074219 127.523438 297.210938 C 127.394531 297.347656 127.332031 297.511719 127.339844 297.699219 C 127.34375 297.886719 127.414062 298.042969 127.550781 298.171875 Z M 127.5625 298.140625 " fill-opacity="1" fill-rule="nonzero"/><path fill="#292929" d="M 219.308594 173.519531 C 219.71875 164.925781 219.503906 158.359375 218.65625 153.824219 C 217.992188 149.332031 215.941406 142.351562 212.496094 132.890625 L 180.878906 139.902344 L 144.664062 134.746094 C 141.988281 136.152344 140.367188 138.296875 139.792969 141.183594 C 139.144531 142.902344 138.785156 147.484375 138.714844 154.941406 C 138.703125 159.191406 138.882812 165.90625 139.257812 175.082031 L 141.351562 179.320312 L 219.316406 173.519531 " fill-opacity="1" fill-rule="nonzero"/><path fill="#f0cda5" d="M 210.84375 182.691406 L 211.957031 182.636719 C 214.21875 182.429688 216.308594 181.71875 218.222656 180.5 C 218.582031 180.359375 219.441406 179.65625 220.796875 178.386719 C 221.441406 177.714844 222.011719 176.988281 222.511719 176.207031 C 223.011719 175.421875 223.429688 174.597656 223.761719 173.730469 C 224.097656 172.863281 224.34375 171.972656 224.5 171.054688 C 224.65625 170.140625 224.722656 169.21875 224.695312 168.289062 C 224.671875 167.363281 224.554688 166.445312 224.34375 165.539062 C 224.136719 164.632812 223.839844 163.757812 223.457031 162.910156 C 223.074219 162.066406 222.609375 161.265625 222.066406 160.511719 C 221.527344 159.757812 220.914062 159.0625 220.234375 158.429688 C 220.007812 158.121094 219.113281 157.46875 217.554688 156.472656 C 216.90625 156.109375 216.234375 155.800781 215.539062 155.542969 C 214.144531 155.027344 212.699219 154.742188 211.210938 154.6875 L 210.84375 182.691406 " fill-opacity="1" fill-rule="nonzero"/><path fill="#f0cda5" d="M 148.34375 185.246094 L 147.230469 185.28125 C 144.960938 185.261719 142.820312 184.722656 140.8125 183.664062 C 140.441406 183.550781 139.527344 182.917969 138.070312 181.765625 C 137.375 181.152344 136.746094 180.472656 136.183594 179.734375 C 135.625 178.992188 135.140625 178.203125 134.738281 177.367188 C 134.332031 176.53125 134.015625 175.664062 133.785156 174.761719 C 133.550781 173.863281 133.410156 172.949219 133.363281 172.023438 C 133.3125 171.09375 133.355469 170.171875 133.488281 169.25 C 133.625 168.332031 133.847656 167.433594 134.160156 166.558594 C 134.472656 165.683594 134.867188 164.851562 135.347656 164.054688 C 135.824219 163.257812 136.378906 162.515625 137.003906 161.832031 C 137.207031 161.5 138.042969 160.777344 139.515625 159.660156 C 141.394531 158.398438 143.457031 157.632812 145.703125 157.363281 L 148.34375 185.246094 " fill-opacity="1" fill-rule="nonzero"/><path fill="#f0cda5" d="M 177.769531 205.664062 L 179.625 205.613281 C 189.585938 205.414062 196.792969 203.96875 201.253906 201.269531 C 205.945312 199.007812 209.683594 194.828125 212.460938 188.722656 C 214.429688 184.039062 215.394531 177.886719 215.347656 170.257812 C 215.339844 161.4375 214.113281 148.347656 211.664062 130.992188 L 175.742188 133.90625 L 177.769531 205.664062 " fill-opacity="1" fill-rule="nonzero"/><path fill="#f0cda5" d="M 183.179688 205.445312 L 181.324219 205.542969 C 171.382812 206.160156 164.078125 205.308594 159.414062 202.980469 C 154.554688 201.109375 150.5 197.246094 147.246094 191.386719 C 144.890625 186.878906 143.425781 180.824219 142.851562 173.226562 C 142.140625 164.425781 142.292969 151.28125 143.316406 133.789062 L 179.347656 133.765625 L 183.179688 205.445312 " fill-opacity="1" fill-rule="nonzero"/><path fill="#f0cda5" d="M 157.996094 190.09375 C 157.328125 190.085938 156.664062 190.128906 156.003906 190.230469 C 153.253906 190.777344 151.089844 192.148438 149.503906 194.335938 C 149.425781 194.449219 149.347656 194.566406 149.269531 194.679688 C 152.15625 198.71875 155.539062 201.484375 159.410156 202.980469 C 161.367188 203.953125 163.78125 204.667969 166.660156 205.128906 C 167.761719 203.148438 168.128906 200.921875 167.761719 198.453125 C 167.210938 195.703125 165.84375 193.535156 163.652344 191.953125 C 161.964844 190.734375 160.078125 190.113281 157.996094 190.097656 Z M 157.996094 190.09375 " fill-opacity="1" fill-rule="nonzero"/><path fill="#f0cda5" d="M 202.984375 188.257812 C 200.335938 188.210938 198.054688 189 196.132812 190.625 C 194.074219 192.378906 192.882812 194.644531 192.570312 197.429688 C 192.40625 199.925781 192.957031 202.113281 194.21875 203.992188 C 197.046875 203.304688 199.394531 202.394531 201.261719 201.261719 C 205.011719 199.457031 208.144531 196.425781 210.664062 192.164062 C 210.59375 192.046875 210.519531 191.941406 210.429688 191.839844 C 208.679688 189.777344 206.414062 188.589844 203.625 188.273438 C 203.417969 188.261719 203.203125 188.25 202.992188 188.25 Z M 202.984375 188.257812 " fill-opacity="1" fill-rule="nonzero"/><path fill="#292929" d="M 211.953125 131.214844 L 206.980469 130.984375 C 185.277344 129.941406 169.027344 129.414062 158.222656 129.402344 C 154.894531 129.371094 151.578125 129.519531 148.265625 129.847656 C 147.113281 129.96875 145.992188 130.226562 144.902344 130.617188 L 143.722656 131.207031 C 142.425781 132.066406 141.660156 133.476562 141.429688 135.433594 C 141.210938 136.492188 141.070312 140.125 141 146.324219 C 140.863281 155.515625 140.984375 162.0625 141.363281 165.964844 C 141.460938 167.199219 141.640625 168.417969 141.90625 169.628906 C 142.164062 170.839844 142.582031 171.476562 143.164062 171.539062 L 143.648438 171.390625 C 144.066406 171.117188 144.421875 170.773438 144.714844 170.359375 L 145.863281 168.605469 L 149.210938 162.496094 C 149.828125 161.519531 150.316406 160.988281 150.683594 160.902344 C 151.078125 160.769531 151.453125 160.902344 151.800781 161.300781 C 153.496094 163.921875 154.585938 165.316406 155.0625 165.484375 C 156.320312 166.394531 157.726562 166.890625 159.28125 166.964844 C 160.679688 167.066406 161.808594 166.761719 162.664062 166.042969 C 162.832031 165.960938 163.023438 165.566406 163.242188 164.863281 L 163.5625 162.492188 C 163.828125 162.125 164.058594 161.976562 164.246094 162.054688 C 164.3125 161.972656 164.828125 162.136719 165.796875 162.542969 L 169.714844 164.503906 L 171.410156 165.21875 C 171.925781 165.414062 172.453125 165.558594 172.992188 165.652344 C 173.769531 165.765625 174.347656 165.71875 174.726562 165.515625 C 175.085938 165.5 175.539062 164.898438 176.082031 163.703125 C 176.847656 160.652344 177.386719 158.9375 177.703125 158.558594 C 177.9375 158.121094 178.277344 157.792969 178.71875 157.570312 L 179.433594 157.398438 C 179.738281 157.242188 180.78125 157.546875 182.558594 158.320312 L 188.792969 161.777344 C 189.550781 162.191406 190.328125 162.558594 191.128906 162.875 C 191.785156 163.15625 192.472656 163.300781 193.191406 163.3125 L 193.941406 163.140625 C 194.410156 162.921875 194.777344 162.59375 195.042969 162.152344 C 195.347656 161.652344 195.585938 161.121094 195.753906 160.5625 C 196.539062 157.339844 197.085938 155.59375 197.40625 155.332031 C 197.578125 155.027344 197.816406 154.785156 198.117188 154.609375 C 198.421875 154.429688 198.746094 154.335938 199.097656 154.328125 C 200.625 154.191406 202.695312 155.421875 205.308594 158.027344 C 206.703125 159.125 208.644531 162.46875 211.136719 168.050781 C 211.546875 168.738281 211.910156 168.980469 212.21875 168.773438 C 215.898438 160.9375 215.808594 148.421875 211.953125 131.222656 " fill-opacity="1" fill-rule="nonzero"/><g clip-path="url(#9159b13a82)"><path fill="#00bf63" d="M 138.46875 155.578125 L 141.683594 153.246094 C 147.804688 148.605469 154.273438 144.515625 161.09375 140.980469 C 163.222656 139.9375 165.410156 139.039062 167.660156 138.289062 L 170.976562 137.34375 C 172.917969 136.8125 175.425781 136.496094 178.496094 136.394531 C 180.820312 136.382812 183.121094 136.597656 185.398438 137.035156 L 188.746094 137.789062 C 191.039062 138.414062 193.285156 139.167969 195.488281 140.058594 C 201.125 142.246094 209.109375 146.46875 219.4375 152.734375 L 216.5625 122.585938 C 206.492188 117.269531 198.730469 113.6875 193.269531 111.832031 C 186.050781 109.441406 180.292969 108.414062 176.003906 108.742188 C 173.855469 108.824219 171.730469 109.097656 169.628906 109.566406 C 168.554688 109.613281 165.445312 110.664062 160.300781 112.726562 C 155.175781 114.960938 148.132812 119.164062 139.175781 125.34375 L 138.46875 155.578125 " fill-opacity="1" fill-rule="nonzero"/></g></svg>