<svg xmlns="http://www.w3.org/2000/svg" xmlns:xlink="http://www.w3.org/1999/xlink" width="500" zoomAndPan="magnify" viewBox="0 0 375 374.999991" height="500" preserveAspectRatio="xMidYMid meet" version="1.0"><defs><clipPath id="3a884f27bb"><path d="M 98.195312 123 L 247 123 L 247 257 L 98.195312 257 Z M 98.195312 123 " clip-rule="nonzero"/></clipPath></defs><path fill="#5e17eb" d="M 188.472656 253.078125 L 130.4375 253.078125 C 122.695312 253.078125 116.417969 246.804688 116.417969 239.0625 L 116.417969 176.136719 L 165.085938 141.019531 C 165.253906 140.90625 165.730469 140.90625 165.890625 141.019531 L 214.550781 176.136719 L 214.550781 177.621094 C 212.097656 178.421875 209.734375 179.464844 207.542969 180.84375 C 202.488281 177.675781 196.644531 175.976562 190.53125 175.976562 C 181.96875 175.976562 173.917969 179.308594 167.867188 185.363281 C 161.808594 191.417969 158.476562 199.46875 158.476562 208.035156 C 158.476562 216.601562 161.808594 224.648438 167.46875 230.292969 Z M 188.472656 253.078125 " fill-opacity="1" fill-rule="nonzero"/><path fill="#5e17eb" d="M 237.304688 220.789062 L 207.542969 253.078125 L 177.777344 220.789062 C 170.734375 213.746094 170.734375 202.324219 177.777344 195.28125 C 184.824219 188.234375 196.246094 188.234375 203.289062 195.28125 L 207.542969 199.53125 L 211.792969 195.28125 C 218.839844 188.234375 230.261719 188.234375 237.304688 195.28125 C 244.347656 202.324219 244.347656 213.746094 237.304688 220.789062 Z M 237.304688 220.789062 " fill-opacity="1" fill-rule="nonzero"/><g clip-path="url(#3a884f27bb)"><path fill="#301c33" d="M 185.246094 249.574219 L 191.707031 256.585938 L 130.4375 256.585938 C 120.777344 256.585938 112.914062 248.722656 112.914062 239.0625 L 112.914062 178.667969 L 119.925781 173.609375 L 119.925781 239.0625 C 119.925781 244.859375 124.640625 249.574219 130.4375 249.574219 Z M 154.828125 126.8125 L 100.351562 166.128906 C 98.78125 167.257812 98.425781 169.449219 99.558594 171.019531 C 100.691406 172.59375 102.886719 172.945312 104.449219 171.808594 L 158.929688 132.492188 C 162.789062 129.707031 168.183594 129.707031 172.042969 132.492188 L 226.515625 171.808594 C 227.140625 172.257812 227.859375 172.472656 228.570312 172.472656 C 229.652344 172.472656 230.726562 171.96875 231.410156 171.019531 C 232.546875 169.449219 232.191406 167.261719 230.625 166.128906 L 176.144531 126.8125 C 169.867188 122.28125 161.097656 122.28125 154.828125 126.8125 Z M 239.78125 192.800781 C 248.179688 201.199219 248.179688 214.867188 239.78125 223.269531 L 210.113281 255.457031 C 209.457031 256.175781 208.519531 256.585938 207.542969 256.585938 C 206.5625 256.585938 205.625 256.175781 204.96875 255.457031 L 175.203125 223.167969 C 171.230469 219.199219 168.988281 213.789062 168.988281 208.035156 C 168.988281 202.28125 171.230469 196.871094 175.300781 192.804688 C 183.441406 184.660156 197.644531 184.667969 205.769531 192.804688 L 207.542969 194.574219 L 209.3125 192.804688 C 217.445312 184.667969 231.648438 184.660156 239.78125 192.804688 Z M 234.824219 197.757812 C 229.328125 192.265625 219.753906 192.273438 214.269531 197.757812 L 210.019531 202.007812 C 208.652344 203.378906 206.433594 203.378906 205.0625 202.007812 L 200.8125 197.757812 C 198.070312 195.011719 194.421875 193.5 190.53125 193.5 C 186.652344 193.5 183.003906 195.011719 180.257812 197.757812 C 177.511719 200.503906 176 204.152344 176 208.035156 C 176 211.917969 177.511719 215.570312 180.257812 218.3125 L 207.542969 247.910156 L 234.730469 218.417969 C 240.496094 212.648438 240.496094 203.421875 234.828125 197.757812 Z M 234.824219 197.757812 " fill-opacity="1" fill-rule="nonzero"/></g></svg>